# xmcd CD database file
#
# Track frame offsets:
#	150
#	22547
#	40582
#	62032
#	84357
#	106680
#	129080
#	147112
#	165147
#	183257
#
# Disc length: 2726 seconds
#
# Revision: 0
# Processed by: cddbd v1.5PL3 Copyright (c) Steve Scherf et al.
# Submitted via: CDex 1.51
#
DISCID=5f0aa40a
DTITLE=Various Artist - 君の好きなヒト
DYEAR=2003
DGENRE=JPop
TTITLE0=君の好きなヒト／Ｋ＆Ｔ
TTITLE1=ワルだった男／Ｋ＆Ｔ
TTITLE2=約束の空／Ｔ．Ｎ．Ｔ．
TTITLE3=君の好きなヒト〜軽部真一と歌うカラオケバージョン〜
TTITLE4=君の好きなヒト〜高島彩と歌うカラオケバージョン〜
TTITLE5=君の好きなヒト　カラオケ
TTITLE6=ワルだった男〜軽部真一と歌うカラオケバージョン〜
TTITLE7=ワルだった男〜高島彩と歌うカラオケバージョン〜
TTITLE8=ワルだった男　カラオケ
TTITLE9=約束の空　カラオケ
EXTD=YEAR: 2003
EXTT0=
EXTT1=
EXTT2=
EXTT3=
EXTT4=
EXTT5=
EXTT6=
EXTT7=
EXTT8=
EXTT9=
PLAYORDER=
